<svg aria-hidden="true" style="position: absolute; width: 0; height: 0; overflow: hidden;" version="1.1" xmlns="http://www.w3.org/2000/svg" xmlns:xlink="http://www.w3.org/1999/xlink">
<defs>
<symbol id="icon-expand" viewBox="0 0 24 28">
<path d="M11.797 16.5c0 0.125-0.063 0.266-0.156 0.359l-5.187 5.187 2.25 2.25c0.187 0.187 0.297 0.438 0.297 0.703 0 0.547-0.453 1-1 1h-7c-0.547 0-1-0.453-1-1v-7c0-0.547 0.453-1 1-1 0.266 0 0.516 0.109 0.703 0.297l2.25 2.25 5.187-5.187c0.094-0.094 0.234-0.156 0.359-0.156s0.266 0.063 0.359 0.156l1.781 1.781c0.094 0.094 0.156 0.234 0.156 0.359zM24 3v7c0 0.547-0.453 1-1 1-0.266 0-0.516-0.109-0.703-0.297l-2.25-2.25-5.187 5.187c-0.094 0.094-0.234 0.156-0.359 0.156s-0.266-0.063-0.359-0.156l-1.781-1.781c-0.094-0.094-0.156-0.234-0.156-0.359s0.063-0.266 0.156-0.359l5.187-5.187-2.25-2.25c-0.187-0.187-0.297-0.438-0.297-0.703 0-0.547 0.453-1 1-1h7c0.547 0 1 0.453 1 1z"></path>
</symbol>
<symbol id="icon-arrows-alt" viewBox="0 0 24 28">
<path d="M20.047 8.453l-5.547 5.547 5.547 5.547 2.25-2.25c0.281-0.297 0.719-0.375 1.094-0.219 0.359 0.156 0.609 0.516 0.609 0.922v7c0 0.547-0.453 1-1 1h-7c-0.406 0-0.766-0.25-0.922-0.625-0.156-0.359-0.078-0.797 0.219-1.078l2.25-2.25-5.547-5.547-5.547 5.547 2.25 2.25c0.297 0.281 0.375 0.719 0.219 1.078-0.156 0.375-0.516 0.625-0.922 0.625h-7c-0.547 0-1-0.453-1-1v-7c0-0.406 0.25-0.766 0.625-0.922 0.359-0.156 0.797-0.078 1.078 0.219l2.25 2.25 5.547-5.547-5.547-5.547-2.25 2.25c-0.187 0.187-0.438 0.297-0.703 0.297-0.125 0-0.266-0.031-0.375-0.078-0.375-0.156-0.625-0.516-0.625-0.922v-7c0-0.547 0.453-1 1-1h7c0.406 0 0.766 0.25 0.922 0.625 0.156 0.359 0.078 0.797-0.219 1.078l-2.25 2.25 5.547 5.547 5.547-5.547-2.25-2.25c-0.297-0.281-0.375-0.719-0.219-1.078 0.156-0.375 0.516-0.625 0.922-0.625h7c0.547 0 1 0.453 1 1v7c0 0.406-0.25 0.766-0.609 0.922-0.125 0.047-0.266 0.078-0.391 0.078-0.266 0-0.516-0.109-0.703-0.297z"></path>
</symbol>
<symbol id="icon-dollar" viewBox="0 0 16 28">
<path d="M15.281 18.516c0 3.187-2.281 5.703-5.594 6.25v2.734c0 0.281-0.219 0.5-0.5 0.5h-2.109c-0.266 0-0.5-0.219-0.5-0.5v-2.734c-3.656-0.516-5.656-2.703-5.734-2.797-0.156-0.187-0.172-0.453-0.031-0.641l1.609-2.109c0.078-0.109 0.219-0.172 0.359-0.187s0.281 0.031 0.375 0.141c0.031 0.016 2.219 2.109 4.984 2.109 1.531 0 3.187-0.812 3.187-2.578 0-1.5-1.844-2.234-3.953-3.078-2.812-1.109-6.312-2.516-6.312-6.438 0-2.875 2.25-5.25 5.516-5.875v-2.812c0-0.281 0.234-0.5 0.5-0.5h2.109c0.281 0 0.5 0.219 0.5 0.5v2.75c3.172 0.359 4.859 2.078 4.922 2.141 0.156 0.172 0.187 0.406 0.078 0.594l-1.266 2.281c-0.078 0.141-0.203 0.234-0.359 0.25-0.156 0.031-0.297-0.016-0.422-0.109-0.016-0.016-1.906-1.687-4.25-1.687-1.984 0-3.359 0.984-3.359 2.406 0 1.656 1.906 2.391 4.125 3.25 2.875 1.109 6.125 2.375 6.125 6.141z"></path>
</symbol>
<symbol id="icon-bed" viewBox="0 0 32 28">
<path d="M4 16h27c0.547 0 1 0.453 1 1v7h-4v-4h-24v4h-4v-19c0-0.547 0.453-1 1-1h2c0.547 0 1 0.453 1 1v11zM13 11c0-2.203-1.797-4-4-4s-4 1.797-4 4 1.797 4 4 4 4-1.797 4-4zM32 15v-1c0-3.313-2.688-6-6-6h-11c-0.547 0-1 0.453-1 1v6h18z"></path>
</symbol>
<symbol id="icon-dollar-sign" viewBox="0 0 24 24">
<path d="M11 11h-1.5c-0.691 0-1.314-0.279-1.768-0.732s-0.732-1.077-0.732-1.768 0.279-1.314 0.732-1.768 1.077-0.732 1.768-0.732h1.5zM13 13h1.5c0.691 0 1.314 0.279 1.768 0.732s0.732 1.077 0.732 1.768-0.279 1.314-0.732 1.768-1.077 0.732-1.768 0.732h-1.5zM17 4h-4v-3c0-0.552-0.448-1-1-1s-1 0.448-1 1v3h-1.5c-1.242 0-2.369 0.505-3.182 1.318s-1.318 1.94-1.318 3.182 0.505 2.369 1.318 3.182 1.94 1.318 3.182 1.318h1.5v5h-5c-0.552 0-1 0.448-1 1s0.448 1 1 1h5v3c0 0.552 0.448 1 1 1s1-0.448 1-1v-3h1.5c1.242 0 2.369-0.505 3.182-1.318s1.318-1.94 1.318-3.182-0.505-2.369-1.318-3.182-1.94-1.318-3.182-1.318h-1.5v-5h4c0.552 0 1-0.448 1-1s-0.448-1-1-1z"></path>
</symbol>
<symbol id="icon-user" viewBox="0 0 24 24">
<path d="M21 21v-2c0-1.38-0.561-2.632-1.464-3.536s-2.156-1.464-3.536-1.464h-8c-1.38 0-2.632 0.561-3.536 1.464s-1.464 2.156-1.464 3.536v2c0 0.552 0.448 1 1 1s1-0.448 1-1v-2c0-0.829 0.335-1.577 0.879-2.121s1.292-0.879 2.121-0.879h8c0.829 0 1.577 0.335 2.121 0.879s0.879 1.292 0.879 2.121v2c0 0.552 0.448 1 1 1s1-0.448 1-1zM17 7c0-1.38-0.561-2.632-1.464-3.536s-2.156-1.464-3.536-1.464-2.632 0.561-3.536 1.464-1.464 2.156-1.464 3.536 0.561 2.632 1.464 3.536 2.156 1.464 3.536 1.464 2.632-0.561 3.536-1.464 1.464-2.156 1.464-3.536zM15 7c0 0.829-0.335 1.577-0.879 2.121s-1.292 0.879-2.121 0.879-1.577-0.335-2.121-0.879-0.879-1.292-0.879-2.121 0.335-1.577 0.879-2.121 1.292-0.879 2.121-0.879 1.577 0.335 2.121 0.879 0.879 1.292 0.879 2.121z"></path>
</symbol>
<symbol id="icon-credit" viewBox="0 0 20 20">
<path d="M11 16.755v2.245h-2v-2.143c-1.712-0.1-3.066-0.589-4.241-1.797l1.718-1.74c0.859 0.87 2.023 1.16 3.282 1.16 1.565 0 2.405-0.599 2.405-1.702 0-0.483-0.133-0.889-0.42-1.16-0.267-0.251-0.572-0.387-1.202-0.483l-1.642-0.232c-1.164-0.174-2.022-0.541-2.634-1.141-0.648-0.657-0.973-1.546-0.973-2.707 0-2.155 1.382-3.743 3.707-4.1v-1.955h2v1.932c1.382 0.145 2.465 0.62 3.415 1.551l-1.679 1.682c-0.859-0.832-1.889-0.947-2.787-0.947-1.412 0-2.099 0.792-2.099 1.74 0 0.348 0.115 0.716 0.401 0.986 0.267 0.252 0.706 0.464 1.26 0.541l1.602 0.232c1.241 0.174 2.023 0.522 2.596 1.063 0.726 0.696 1.050 1.702 1.050 2.92 0 2.25-1.567 3.662-3.759 4.055z"></path>
</symbol>
<symbol id="icon-key" viewBox="0 0 20 20">
<path d="M17.691 4.725c-0.503-2.977-3.22-4.967-6.069-4.441s-5.256 2.816-4.753 5.795c0.107 0.641 0.408 1.644 0.763 2.365l-5.175 7.723c-0.191 0.285-0.299 0.799-0.242 1.141l0.333 1.971c0.058 0.342 0.372 0.572 0.7 0.514l1.516-0.281c0.328-0.059 0.744-0.348 0.924-0.639l2.047-3.311 0.018-0.022 1.386-0.256 2.39-3.879c0.785 0.139 1.912 0.092 2.578-0.031 2.848-0.526 4.087-3.67 3.584-6.649zM15.166 6.252c-0.784 1.17-1.584 0.346-2.703-0.475-1.119-0.818-2.135-1.322-1.352-2.492s2.326-1.455 3.447-0.635c1.12 0.819 1.391 2.432 0.608 3.602z"></path>
</symbol>
<symbol id="icon-location-pin" viewBox="0 0 20 20">
<path d="M10 2.009c-2.762 0-5 2.229-5 4.99 0 4.774 5 11 5 11s5-6.227 5-11c0-2.76-2.238-4.99-5-4.99zM10 9.76c-1.492 0-2.7-1.209-2.7-2.7s1.208-2.7 2.7-2.7c1.49 0 2.699 1.209 2.699 2.7s-1.209 2.7-2.699 2.7z"></path>
</symbol>
<symbol id="icon-user1" viewBox="0 0 20 20">
<path d="M7.725 2.146c-1.016 0.756-1.289 1.953-1.239 2.59 0.064 0.779 0.222 1.793 0.222 1.793s-0.313 0.17-0.313 0.854c0.109 1.717 0.683 0.976 0.801 1.729 0.284 1.814 0.933 1.491 0.933 2.481 0 1.649-0.68 2.42-2.803 3.334-2.13 0.918-4.326 2.073-4.326 4.073v1h18v-1c0-2-2.197-3.155-4.328-4.072-2.123-0.914-2.801-1.684-2.801-3.334 0-0.99 0.647-0.667 0.932-2.481 0.119-0.753 0.692-0.012 0.803-1.729 0-0.684-0.314-0.854-0.314-0.854s0.158-1.014 0.221-1.793c0.065-0.817-0.398-2.561-2.3-3.096-0.333-0.34-0.558-0.881 0.466-1.424-2.24-0.105-2.761 1.067-3.954 1.929z"></path>
</symbol>
<symbol id="icon-currency-dollar" viewBox="0 0 20 20">
<path d="M10 20c-5.523 0-10-4.477-10-10s4.477-10 10-10v0c5.523 0 10 4.477 10 10s-4.477 10-10 10v0zM11 15h1c1.657 0 3-1.343 3-3s-1.343-3-3-3v0h-4.010c-0.552 0-1-0.448-1-1s0.448-1 1-1v0h6.010v-2h-3v-2h-2v2h-1c-1.657 0-3 1.343-3 3s1.343 3 3 3v0h4c0.552 0 1 0.448 1 1s-0.448 1-1 1v0h-6v2h3v2h2v-2z"></path>
</symbol>
<symbol id="icon-home" viewBox="0 0 20 20">
<path d="M8 20h-5v-10h-3l10-10 10 10h-3v10h-5v-6h-4v6z"></path>
</symbol>
<symbol id="icon-bed1" viewBox="0 0 20 20">
<path d="M2 12h18v6h-2v-2h-16v2h-2v-16h2v10zM10 6h8c1.105 0 2 0.895 2 2v0 3h-10v-5zM6 11c-1.657 0-3-1.343-3-3s1.343-3 3-3v0c1.657 0 3 1.343 3 3s-1.343 3-3 3v0z"></path>
</symbol>
<symbol id="icon-pin" viewBox="0 0 20 20">
<path d="M11 12h6v-1l-3-1v-8l3-1v-1h-14v1l3 1v8l-3 1v1h6v7l1 1 1-1v-7z"></path>
</symbol>
<symbol id="icon-screen-full" viewBox="0 0 20 20">
<path d="M2.8 15.8l-2.8-2.8v7h7l-2.8-2.8 4.34-4.32-1.42-1.42-4.32 4.34zM17.2 4.2l2.8 2.8v-7h-7l2.8 2.8-4.34 4.32 1.42 1.42 4.32-4.34zM15.8 17.2l-2.8 2.8h7v-7l-2.8 2.8-4.32-4.34-1.42 1.42 4.33 4.33zM4.2 2.8l2.8-2.8h-7v7l2.8-2.8 4.32 4.34 1.42-1.42-4.34-4.32z"></path>
</symbol>
<symbol id="icon-star-full" viewBox="0 0 20 20">
<path d="M10 15l-5.878 3.090 1.123-6.545-4.756-4.635 6.572-0.955 2.939-5.955 2.939 5.955 6.572 0.955-4.756 4.635 1.123 6.545z"></path>
</symbol>
<symbol id="icon-user2" viewBox="0 0 20 20">
<path d="M5 5c0-2.761 2.239-5 5-5s5 2.239 5 5v0 2c0 2.761-2.239 5-5 5s-5-2.239-5-5v0-2zM0 16.68c2.86-1.685 6.301-2.68 9.974-2.68 0.009 0 0.018 0 0.027 0h-0.001c3.64 0 7.060 0.97 10 2.68v3.32h-20v-3.32z"></path>
</symbol>
<symbol id="icon-home3" viewBox="0 0 32 32">
<path d="M32 19l-6-6v-9h-4v5l-6-6-16 16v1h4v10h10v-6h4v6h10v-10h4z"></path>
</symbol>
<symbol id="icon-coin-dollar" viewBox="0 0 32 32">
<path d="M15 2c-8.284 0-15 6.716-15 15s6.716 15 15 15c8.284 0 15-6.716 15-15s-6.716-15-15-15zM15 29c-6.627 0-12-5.373-12-12s5.373-12 12-12c6.627 0 12 5.373 12 12s-5.373 12-12 12zM16 16v-4h4v-2h-4v-2h-2v2h-4v8h4v4h-4v2h4v2h2v-2h4l-0-8h-4zM14 16h-2v-4h2v4zM18 22h-2v-4h2v4z"></path>
</symbol>
<symbol id="icon-location2" viewBox="0 0 32 32">
<path d="M16 0c-5.523 0-10 4.477-10 10 0 10 10 22 10 22s10-12 10-22c0-5.523-4.477-10-10-10zM16 16.125c-3.383 0-6.125-2.742-6.125-6.125s2.742-6.125 6.125-6.125 6.125 2.742 6.125 6.125-2.742 6.125-6.125 6.125zM12.125 10c0-2.14 1.735-3.875 3.875-3.875s3.875 1.735 3.875 3.875c0 2.14-1.735 3.875-3.875 3.875s-3.875-1.735-3.875-3.875z"></path>
</symbol>
<symbol id="icon-key1" viewBox="0 0 32 32">
<path d="M22 0c-5.523 0-10 4.477-10 10 0 0.626 0.058 1.238 0.168 1.832l-12.168 12.168v6c0 1.105 0.895 2 2 2h2v-2h4v-4h4v-4h4l2.595-2.595c1.063 0.385 2.209 0.595 3.405 0.595 5.523 0 10-4.477 10-10s-4.477-10-10-10zM24.996 10.004c-1.657 0-3-1.343-3-3s1.343-3 3-3 3 1.343 3 3-1.343 3-3 3z"></path>
</symbol>
</defs>
</svg>
